<svg width="86" height="74" viewBox="0 0 86 74" fill="none" xmlns="http://www.w3.org/2000/svg" xmlns:xlink="http://www.w3.org/1999/xlink">
<path d="M80.833,-0.007L64.458,2.853L75.875,15.833L84.083,14.367L80.833,-0.007ZM52.208,4.98L44,6.41L55.458,19.353L63.625,17.923L52.208,4.98ZM31.792,8.5L23.583,10.003L35.042,22.947L43.208,21.517L31.792,8.5ZM11.333,12.167L7.25,12.863C5.085,13.244 3.18,14.365 1.953,15.981C0.727,17.596 0.279,19.574 0.708,21.48L2.333,28.667L22.75,25.11L11.333,12.167ZM2.333,28.667L2.333,65.333C2.333,69.403 6.083,72.667 10.667,72.667L77.333,72.667C81.958,72.667 85.667,69.403 85.667,65.333L85.667,28.667L2.333,28.667Z" fill="#FFFFFF"/>
</svg>
