<svg width="38" height="32" viewBox="0 0 38 32" fill="none" xmlns="http://www.w3.org/2000/svg" xmlns:xlink="http://www.w3.org/1999/xlink">
<path d="M17.717,10L23,15.267C23,15.183 23,15.083 23,15C23,13.674 22.474,12.402 21.536,11.464C20.598,10.527 19.326,10 18,10C17.9,10 17.817,10 17.717,10ZM10.55,11.333L13.134,13.917C13.05,14.267 13,14.617 13,15C13,16.326 13.527,17.598 14.465,18.536C15.402,19.473 16.674,20 18,20C18.367,20 18.734,19.95 19.084,19.867L21.667,22.45C20.55,23 19.317,23.333 18,23.333C15.79,23.333 13.671,22.455 12.108,20.893C10.545,19.33 9.667,17.21 9.667,15C9.667,13.683 10,12.45 10.55,11.333ZM1.334,2.117L5.134,5.917L5.884,6.667C3.134,8.833 0.967,11.667 -0.333,15C2.55,22.317 9.667,27.5 18,27.5C20.584,27.5 23.05,27 25.3,26.1L26.017,26.8L30.884,31.667L33,29.55L3.45,0M18,6.667C20.21,6.667 22.33,7.545 23.893,9.107C25.456,10.67 26.334,12.79 26.334,15C26.334,16.067 26.117,17.1 25.734,18.033L30.617,22.917C33.117,20.833 35.117,18.1 36.334,15C33.45,7.683 26.334,2.5 18,2.5C15.667,2.5 13.434,2.917 11.334,3.667L14.95,7.25C15.9,6.883 16.917,6.667 18,6.667Z" fill="#9D9EA1"/>
</svg>
